<svg id="visual" viewBox="0 0 960 540" width="960" height="540" xmlns="http://www.w3.org/2000/svg" xmlns:xlink="http://www.w3.org/1999/xlink" version="1.1"><g><g transform="translate(37 330)"><path d="M41.7 -51.9C52.6 -40.5 59.1 -26 61.1 -11.3C63.1 3.4 60.6 18.5 54.3 33.2C48 47.8 37.9 62.2 25.1 65.2C12.3 68.3 -3.3 60.1 -19.6 54.1C-35.9 48 -52.9 44.2 -63.4 33.2C-73.8 22.1 -77.7 3.9 -70.9 -8.6C-64 -21 -46.4 -27.6 -32.8 -38.5C-19.2 -49.5 -9.6 -64.7 2.9 -68.1C15.4 -71.6 30.7 -63.2 41.7 -51.9Z" fill="#695997"></path></g><g transform="translate(825 485)"><path d="M23.2 -26.8C30.6 -21.5 37.3 -14.6 39.1 -6.6C40.9 1.5 37.7 10.7 32.3 17.3C26.9 24 19.3 28 11.6 30C4 31.9 -3.7 31.7 -11 29.4C-18.2 27.1 -25 22.7 -28 16.6C-31.1 10.5 -30.3 2.6 -28.5 -4.5C-26.6 -11.7 -23.6 -18.1 -18.7 -23.8C-13.8 -29.5 -6.9 -34.5 0.5 -35.1C7.9 -35.7 15.9 -32 23.2 -26.8Z" fill="#695997"></path></g><g transform="translate(396 55)"><path d="M42.9 -49.9C54.1 -41.7 60.7 -26.8 60.9 -12.7C61.1 1.5 54.9 14.8 46 23.1C37.1 31.5 25.5 34.7 14.2 38.8C2.8 43 -8.2 47.9 -19.7 46.9C-31.3 45.8 -43.3 38.9 -46.4 29C-49.5 19.1 -43.7 6.2 -38.6 -4.1C-33.6 -14.4 -29.3 -22.1 -23 -31.1C-16.7 -40.2 -8.3 -50.6 3.8 -55C15.9 -59.5 31.7 -58.1 42.9 -49.9Z" fill="#695997"></path></g><g transform="translate(543 413)"><path d="M13.5 -16.8C17.7 -12.6 21.5 -8.5 24.1 -2.9C26.6 2.6 27.9 9.7 25.2 14.6C22.5 19.6 15.8 22.2 9.9 22.4C3.9 22.5 -1.2 20 -6.1 17.8C-11 15.6 -15.7 13.7 -20.3 9.8C-24.8 5.8 -29.3 -0.1 -28.6 -5.1C-27.8 -10.2 -21.8 -14.5 -16.1 -18.5C-10.5 -22.5 -5.3 -26.1 -0.3 -25.8C4.6 -25.4 9.3 -21 13.5 -16.8Z" fill="#695997"></path></g><g transform="translate(920 57)"><path d="M38 -43C48 -36.9 53.9 -23.7 56 -10.1C58.1 3.5 56.4 17.5 49.6 28.1C42.9 38.6 31 45.6 18 51.2C4.9 56.8 -9.4 60.9 -21.8 57.4C-34.1 53.9 -44.6 42.9 -49 30.6C-53.5 18.3 -51.8 4.7 -48.6 -7.7C-45.3 -20 -40.5 -31.2 -32.1 -37.6C-23.7 -43.9 -11.9 -45.4 1.1 -46.7C14 -48 28 -49 38 -43Z" fill="#695997"></path></g><g transform="translate(217 130)"><path d="M18.9 -23C23.3 -18.7 25 -11.7 27.3 -4C29.6 3.7 32.5 12.1 29.9 17.7C27.2 23.4 18.9 26.3 11.3 27.4C3.8 28.5 -3 27.8 -10.3 26.1C-17.6 24.4 -25.2 21.7 -30.9 15.9C-36.6 10.1 -40.3 1.2 -39.5 -7.6C-38.7 -16.4 -33.5 -25.1 -26.2 -28.9C-18.9 -32.6 -9.5 -31.4 -1.1 -30.1C7.2 -28.8 14.4 -27.3 18.9 -23Z" fill="#695997"></path></g><g transform="translate(178 430)"><path d="M6.4 -7.1C8.2 -6 9.7 -4 9.8 -1.9C10 0.2 8.8 2.3 7.4 3.8C6 5.3 4.3 6.2 2.3 7.4C0.3 8.6 -1.9 10 -3.8 9.7C-5.6 9.3 -7.1 7.1 -8 4.9C-9 2.7 -9.4 0.5 -9.4 -2C-9.3 -4.4 -8.8 -7.1 -7.1 -8.2C-5.5 -9.3 -2.7 -8.8 -0.2 -8.5C2.3 -8.2 4.5 -8.1 6.4 -7.1Z" fill="#695997"></path></g><g transform="translate(24 118)"><path d="M36.3 -39.3C48.5 -33 61 -23 62.5 -11.4C64.1 0.1 54.8 13.2 45.1 22.4C35.4 31.6 25.4 36.9 13.6 44C1.9 51.2 -11.6 60.1 -23.1 58.2C-34.5 56.2 -43.9 43.5 -46.1 30.9C-48.3 18.2 -43.3 5.7 -42.4 -8.9C-41.5 -23.5 -44.6 -40.2 -38.2 -47.5C-31.8 -54.9 -15.9 -52.9 -1.9 -50.5C12 -48.2 24.1 -45.6 36.3 -39.3Z" fill="#695997"></path></g><g transform="translate(326 259)"><path d="M27.9 -31.1C36.3 -26.3 43.1 -17.5 43.9 -8.4C44.7 0.7 39.4 10.2 33.9 19.3C28.3 28.4 22.5 37.2 14.6 40.1C6.6 43 -3.4 40 -12.8 36.1C-22.2 32.3 -30.9 27.6 -36.5 20C-42 12.5 -44.5 2.1 -42.3 -6.9C-40 -15.9 -33.1 -23.6 -25.3 -28.5C-17.5 -33.4 -8.7 -35.5 0.5 -36.1C9.8 -36.8 19.6 -35.9 27.9 -31.1Z" fill="#695997"></path></g><g transform="translate(511 239)"><path d="M22.4 -27.4C28.3 -21.7 31.9 -14 32.6 -6.3C33.3 1.4 31.1 9.1 27.5 16.4C23.9 23.7 18.8 30.7 11.9 33.6C4.9 36.6 -3.8 35.6 -9.7 31.4C-15.5 27.1 -18.5 19.7 -20.7 13.2C-22.8 6.7 -24.3 1.1 -25.8 -7C-27.3 -15.1 -28.8 -25.6 -24.5 -31.6C-20.2 -37.6 -10.1 -39.2 -0.9 -38.1C8.2 -37 16.5 -33.2 22.4 -27.4Z" fill="#695997"></path></g><g transform="translate(745 219)"><path d="M25.5 -28.8C32.1 -24.9 35.7 -15.9 35.3 -7.8C34.9 0.4 30.5 7.7 26.4 15.5C22.2 23.2 18.3 31.3 11.3 35.9C4.3 40.6 -5.7 41.9 -13.3 38.4C-20.9 34.8 -26.1 26.4 -29.7 18.1C-33.3 9.8 -35.4 1.6 -33.9 -5.9C-32.5 -13.5 -27.7 -20.3 -21.4 -24.3C-15.2 -28.3 -7.6 -29.4 0.9 -30.5C9.5 -31.6 18.9 -32.7 25.5 -28.8Z" fill="#695997"></path></g><g transform="translate(674 15)"><path d="M24 -29.7C29.1 -24.3 29.8 -14.8 30.3 -6.2C30.7 2.4 30.9 10.2 27.4 15.5C23.9 20.8 16.8 23.6 10 25.1C3.2 26.5 -3.2 26.5 -9.8 25C-16.5 23.5 -23.2 20.4 -26.1 15.2C-29 10 -27.9 2.6 -25.5 -3.4C-23.2 -9.4 -19.5 -14.2 -15 -19.6C-10.6 -25.1 -5.3 -31.4 2.1 -33.9C9.4 -36.3 18.9 -35 24 -29.7Z" fill="#695997"></path></g><g transform="translate(928 293)"><path d="M17.1 -20.7C21.6 -16.6 24.3 -10.7 25.3 -4.6C26.2 1.6 25.5 7.9 22.3 12.3C19.1 16.7 13.4 19 8.2 19.7C3 20.4 -1.8 19.3 -8.3 18.7C-14.7 18.1 -22.7 17.9 -27.3 13.9C-31.9 9.8 -33.1 1.9 -30.6 -4.3C-28.2 -10.4 -22.1 -14.8 -16.4 -18.6C-10.7 -22.5 -5.4 -25.8 0.5 -26.4C6.3 -26.9 12.6 -24.7 17.1 -20.7Z" fill="#695997"></path></g><g transform="translate(416 539)"><path d="M17.9 -23.8C23.3 -16.7 27.9 -11.2 30.4 -4.3C32.8 2.6 33.2 11 30 18.2C26.9 25.4 20.3 31.5 12.5 34.4C4.7 37.3 -4.4 37 -11.3 33.5C-18.3 29.9 -23.2 23.1 -25.5 16.2C-27.7 9.3 -27.3 2.3 -27.1 -5.8C-26.9 -13.9 -26.9 -23 -22.5 -30.3C-18 -37.5 -9 -42.9 -1.4 -41.3C6.2 -39.6 12.4 -30.9 17.9 -23.8Z" fill="#695997"></path></g><g transform="translate(12 523)"><path d="M28.4 -39.3C34.5 -28.7 35.6 -17.6 36.8 -7.1C38 3.5 39.2 13.4 36.5 24C33.9 34.6 27.3 45.8 16.6 52.7C6 59.6 -8.8 62.2 -20.4 57.4C-32 52.6 -40.5 40.4 -47.6 27.7C-54.6 15 -60.3 1.7 -56.6 -8.3C-52.8 -18.2 -39.6 -24.8 -28.6 -34.6C-17.6 -44.3 -8.8 -57.3 1.2 -58.7C11.1 -60.1 22.3 -49.9 28.4 -39.3Z" fill="#695997"></path></g></g></svg>