<svg id="visual" viewBox="0 0 600 900" width="600" height="900" xmlns="http://www.w3.org/2000/svg" xmlns:xlink="http://www.w3.org/1999/xlink" version="1.1"><g><g transform="translate(437 94)"><path d="M32.5 -41.8C39.8 -32.5 42 -20.2 45.6 -7C49.2 6.2 54.1 20.1 51.3 33.8C48.4 47.6 37.8 61 25 63.4C12.2 65.9 -2.8 57.3 -14.1 48.8C-25.4 40.3 -33.1 31.9 -42.4 21.6C-51.7 11.3 -62.7 -0.8 -64.8 -15.3C-66.9 -29.8 -60 -46.6 -47.7 -55C-35.4 -63.5 -17.7 -63.6 -2.6 -60.5C12.5 -57.4 25.1 -51.1 32.5 -41.8Z" fill="#695997"></path></g><g transform="translate(130 549)"><path d="M29.7 -33.7C38.2 -28.3 44.7 -18.6 45.5 -8.8C46.3 1.1 41.5 11.1 36.7 22.7C31.8 34.3 26.9 47.4 17.7 52.5C8.4 57.5 -5.1 54.5 -19.8 50.8C-34.5 47 -50.3 42.6 -54.1 32.8C-58 23 -49.9 7.8 -43.3 -3.8C-36.7 -15.5 -31.6 -23.6 -24.7 -29.3C-17.7 -35 -8.9 -38.3 0.9 -39.4C10.6 -40.4 21.2 -39.1 29.7 -33.7Z" fill="#695997"></path></g><g transform="translate(226 696)"><path d="M38.9 -47.9C48.2 -38.5 52.1 -24.2 50.8 -11.9C49.4 0.4 42.8 10.6 37.6 23.7C32.4 36.8 28.7 52.7 19.5 58C10.3 63.3 -4.5 58.1 -17.7 51.8C-30.9 45.6 -42.5 38.4 -52.3 27.4C-62 16.3 -69.8 1.3 -68.2 -12.8C-66.6 -26.8 -55.6 -40 -42.7 -48.8C-29.8 -57.6 -14.9 -62.1 -0.1 -62C14.8 -61.9 29.5 -57.3 38.9 -47.9Z" fill="#695997"></path></g><g transform="translate(456 793)"><path d="M6.1 -7.1C8.4 -5.4 11 -3.9 11.9 -1.7C12.8 0.6 12.1 3.6 10.6 6.3C9.2 9 7.2 11.5 4.5 12.5C1.9 13.4 -1.3 12.9 -4 11.7C-6.7 10.4 -8.8 8.4 -9.8 6C-10.9 3.6 -10.7 0.9 -10.5 -2.1C-10.4 -5.2 -10.1 -8.4 -8.3 -10.2C-6.6 -12 -3.3 -12.4 -0.7 -11.6C1.9 -10.8 3.9 -8.8 6.1 -7.1Z" fill="#695997"></path></g><g transform="translate(214 375)"><path d="M24 -26.8C31.9 -21.9 39.7 -15.1 44.2 -5.5C48.6 4.2 49.7 16.7 44.6 26C39.5 35.2 28.3 41.1 17.2 43.5C6.1 45.9 -4.9 44.7 -15.7 41.5C-26.6 38.3 -37.3 33 -41.1 24.6C-45 16.2 -42 4.6 -40.6 -7.8C-39.1 -20.2 -39.2 -33.5 -32.7 -38.7C-26.2 -43.8 -13.1 -40.8 -2.5 -37.8C8 -34.8 16 -31.7 24 -26.8Z" fill="#695997"></path></g><g transform="translate(426 580)"><path d="M39.7 -45.6C48.3 -40.1 50 -24.6 51.4 -10.1C52.8 4.5 53.9 18.1 48.6 28.7C43.3 39.4 31.6 47 20.1 48C8.6 49.1 -2.7 43.7 -15.9 40.3C-29.2 37 -44.5 35.7 -51.6 27.7C-58.8 19.7 -57.8 4.8 -55.2 -9.7C-52.5 -24.1 -48.2 -38.2 -38.7 -43.5C-29.3 -48.8 -14.6 -45.3 0.5 -45.8C15.6 -46.4 31.1 -51 39.7 -45.6Z" fill="#695997"></path></g><g transform="translate(126 131)"><path d="M23 -30.3C29.6 -21.9 34.5 -14.4 37.7 -5.3C40.9 3.9 42.5 14.7 39 24.2C35.5 33.8 27 42.2 17.3 44.3C7.6 46.5 -3.2 42.5 -13.4 38.2C-23.6 33.9 -33.2 29.3 -37.5 21.7C-41.7 14.2 -40.5 3.6 -38.4 -6.4C-36.2 -16.4 -33 -25.9 -26.4 -34.3C-19.8 -42.6 -9.9 -49.8 -0.8 -48.8C8.2 -47.8 16.5 -38.6 23 -30.3Z" fill="#695997"></path></g><g transform="translate(550 326)"><path d="M22.3 -25.4C29 -20.9 34.6 -14 37.8 -5.3C40.9 3.4 41.7 13.9 36.9 20.4C32.1 26.8 21.8 29.2 11.8 33.3C1.8 37.3 -8 42.9 -14.2 40.1C-20.4 37.3 -23 26.1 -27.7 16.7C-32.4 7.2 -39 -0.4 -40.2 -9.4C-41.3 -18.3 -37 -28.6 -29.4 -32.8C-21.7 -37.1 -10.9 -35.4 -1.5 -33.5C7.8 -31.7 15.6 -29.8 22.3 -25.4Z" fill="#695997"></path></g><g transform="translate(22 773)"><path d="M10.9 -13.1C13.5 -10.8 14.6 -6.8 15.4 -2.6C16.3 1.5 16.8 5.8 15 8.3C13.1 10.9 8.9 11.8 5.2 12.1C1.6 12.4 -1.3 12.1 -4.6 11.5C-7.9 10.8 -11.6 9.8 -13.9 7.3C-16.2 4.8 -17.1 0.8 -17 -3.5C-16.8 -7.7 -15.4 -12.3 -12.4 -14.5C-9.4 -16.8 -4.7 -16.8 -0.3 -16.5C4.1 -16.1 8.3 -15.5 10.9 -13.1Z" fill="#695997"></path></g><g transform="translate(287 882)"><path d="M31.5 -37.4C41.6 -29 51.3 -19.9 53.4 -9.2C55.5 1.4 50 13.5 42.2 22C34.5 30.4 24.5 35.2 14.6 37.7C4.8 40.3 -5 40.5 -14.1 37.7C-23.2 34.9 -31.5 28.9 -36.3 20.9C-41.1 12.8 -42.3 2.6 -39.7 -6.2C-37.2 -14.9 -30.9 -22.2 -23.7 -31.1C-16.5 -40 -8.2 -50.6 1.2 -52C10.6 -53.5 21.3 -45.8 31.5 -37.4Z" fill="#695997"></path></g><g transform="translate(598 610)"><path d="M10.1 -10.4C14.2 -8.6 19.2 -6.5 20.8 -2.9C22.4 0.7 20.5 5.7 17.5 9.3C14.5 12.9 10.4 15 6.4 15.6C2.5 16.1 -1.3 15 -5.1 13.7C-8.9 12.4 -12.7 11 -14.9 8.1C-17 5.3 -17.6 1.1 -16.7 -2.8C-15.8 -6.6 -13.6 -10 -10.5 -12C-7.5 -13.9 -3.8 -14.4 -0.4 -14C3 -13.5 6 -12.2 10.1 -10.4Z" fill="#695997"></path></g><g transform="translate(363 271)"><path d="M35.4 -41.7C43.2 -35.6 45 -21.9 47.3 -8.4C49.5 5 52.2 18.3 48.5 31C44.8 43.7 34.7 55.7 22.7 58.2C10.8 60.7 -3.1 53.6 -15.7 47.2C-28.3 40.9 -39.7 35.2 -45.8 25.8C-52 16.5 -53 3.5 -51.1 -9.4C-49.3 -22.2 -44.7 -35 -35.7 -40.9C-26.7 -46.8 -13.3 -45.9 0.2 -46.2C13.8 -46.5 27.6 -47.9 35.4 -41.7Z" fill="#695997"></path></g><g transform="translate(254 15)"><path d="M4 -5C5.1 -4 5.6 -2.5 5.9 -1C6.3 0.5 6.4 2.1 5.7 3.4C5.1 4.6 3.7 5.4 2.3 5.6C0.9 5.9 -0.5 5.5 -2 5.2C-3.6 4.8 -5.3 4.4 -5.9 3.4C-6.4 2.4 -5.8 0.7 -5.6 -1.1C-5.4 -2.9 -5.6 -4.9 -4.7 -6C-3.9 -7 -1.9 -7.1 -0.2 -6.8C1.5 -6.6 3 -6 4 -5Z" fill="#695997"></path></g><g transform="translate(47 313)"><path d="M13.6 -14.6C18.9 -11.7 25.5 -8.7 27.5 -3.9C29.5 0.9 26.8 7.4 22.6 11.5C18.4 15.5 12.6 17 7.4 17.7C2.3 18.3 -2.1 18.1 -7.6 17.6C-13.1 17 -19.7 16.1 -24 12.2C-28.4 8.2 -30.5 1.2 -29.6 -5.6C-28.8 -12.3 -25.1 -19 -19.7 -21.9C-14.3 -24.8 -7.1 -24.1 -1.5 -22.3C4.1 -20.5 8.2 -17.6 13.6 -14.6Z" fill="#695997"></path></g><g transform="translate(589 5)"><path d="M24.8 -32C32.2 -23.3 38.5 -15.6 42.2 -5.8C45.8 4 46.9 15.8 42.1 24.5C37.4 33.2 26.7 38.7 16.4 40.4C6.1 42 -3.8 39.9 -15.5 37.7C-27.3 35.6 -40.8 33.5 -45.6 26C-50.3 18.5 -46.2 5.5 -41.6 -5.1C-37 -15.7 -32 -23.9 -25 -32.7C-18 -41.5 -9 -50.8 -0.2 -50.6C8.7 -50.4 17.3 -40.7 24.8 -32Z" fill="#695997"></path></g></g></svg>