<svg id="visual" viewBox="0 0 675 900" width="675" height="900" xmlns="http://www.w3.org/2000/svg" xmlns:xlink="http://www.w3.org/1999/xlink" version="1.1"><rect x="0" y="0" width="675" height="900" fill="#FFFFFF"></rect><defs><linearGradient id="grad1_0" x1="0%" y1="0%" x2="100%" y2="100%"><stop offset="30%" stop-color="#ffffff" stop-opacity="1"></stop><stop offset="70%" stop-color="#ffffff" stop-opacity="1"></stop></linearGradient></defs><defs><linearGradient id="grad2_0" x1="0%" y1="0%" x2="100%" y2="100%"><stop offset="30%" stop-color="#ffffff" stop-opacity="1"></stop><stop offset="70%" stop-color="#ffffff" stop-opacity="1"></stop></linearGradient></defs><g transform="translate(675, 0)"><path d="M0 506.3C-79.9 512.9 -159.9 519.5 -193.7 467.7C-227.6 415.9 -215.3 305.8 -255.3 255.3C-295.2 204.8 -387.4 214 -437.9 181.4C-488.5 148.8 -497.4 74.4 -506.2 0L0 0Z" fill="#695997"></path></g><g transform="translate(0, 900)"><path d="M0 -506.2C74.1 -507.7 148.2 -509.1 193.7 -467.7C239.3 -426.4 256.4 -342.2 288.5 -288.5C320.6 -234.8 367.7 -211.4 406.5 -168.4C445.3 -125.4 475.8 -62.7 506.3 0L0 0Z" fill="#695997"></path></g></svg>