<svg id="visual" viewBox="0 0 900 600" width="900" height="600" xmlns="http://www.w3.org/2000/svg" xmlns:xlink="http://www.w3.org/1999/xlink" version="1.1"><rect x="0" y="0" width="900" height="600" fill="#FFFFFF"></rect><defs><linearGradient id="grad1_0" x1="33.3%" y1="0%" x2="100%" y2="100%"><stop offset="20%" stop-color="#ffffff" stop-opacity="1"></stop><stop offset="80%" stop-color="#ffffff" stop-opacity="1"></stop></linearGradient></defs><defs><linearGradient id="grad2_0" x1="0%" y1="0%" x2="66.7%" y2="100%"><stop offset="20%" stop-color="#ffffff" stop-opacity="1"></stop><stop offset="80%" stop-color="#ffffff" stop-opacity="1"></stop></linearGradient></defs><g transform="translate(900, 0)"><path d="M0 486.7C-43.5 438.8 -87 390.8 -156.1 376.9C-225.2 363.1 -319.9 383.5 -344.2 344.2C-368.5 304.9 -322.4 205.8 -334.4 138.5C-346.5 71.2 -416.6 35.6 -486.7 0L0 0Z" fill="#695997"></path></g><g transform="translate(0, 600)"><path d="M0 -486.7C37.9 -422.5 75.8 -358.2 143.1 -345.5C210.4 -332.8 307.2 -371.7 344.2 -344.2C381.2 -316.6 358.5 -222.7 372.3 -154.2C386.1 -85.8 436.4 -42.9 486.7 0L0 0Z" fill="#695997"></path></g></svg>