<svg id="visual" viewBox="0 0 675 900" width="675" height="900" xmlns="http://www.w3.org/2000/svg" xmlns:xlink="http://www.w3.org/1999/xlink" version="1.1"><g fill="#695997"><circle r="58" cx="50" cy="22"></circle><circle r="4" cx="617" cy="520"></circle><circle r="34" cx="22" cy="523"></circle><circle r="52" cx="180" cy="408"></circle><circle r="17" cx="347" cy="701"></circle><circle r="41" cx="340" cy="279"></circle><circle r="12" cx="18" cy="331"></circle><circle r="44" cx="57" cy="773"></circle><circle r="8" cx="620" cy="842"></circle><circle r="27" cx="209" cy="8"></circle><circle r="5" cx="284" cy="821"></circle><circle r="35" cx="277" cy="569"></circle><circle r="4" cx="469" cy="857"></circle><circle r="20" cx="586" cy="139"></circle><circle r="5" cx="158" cy="267"></circle><circle r="19" cx="46" cy="139"></circle><circle r="28" cx="516" cy="696"></circle><circle r="17" cx="611" cy="322"></circle><circle r="36" cx="440" cy="538"></circle><circle r="21" cx="451" cy="212"></circle><circle r="39" cx="183" cy="152"></circle><circle r="12" cx="642" cy="681"></circle><circle r="39" cx="331" cy="418"></circle><circle r="15" cx="404" cy="77"></circle><circle r="5" cx="126" cy="587"></circle><circle r="5" cx="12" cy="895"></circle><circle r="27" cx="538" cy="15"></circle><circle r="29" cx="170" cy="848"></circle><circle r="49" cx="470" cy="425"></circle><circle r="5" cx="670" cy="30"></circle><circle r="41" cx="194" cy="691"></circle><circle r="14" cx="17" cy="665"></circle><circle r="42" cx="307" cy="165"></circle><circle r="16" cx="673" cy="223"></circle></g></svg>