<svg id="visual" viewBox="0 0 960 540" width="960" height="540" xmlns="http://www.w3.org/2000/svg" xmlns:xlink="http://www.w3.org/1999/xlink" version="1.1"><g fill="#695997"><circle r="54" cx="25" cy="435"></circle><circle r="4" cx="930" cy="188"></circle><circle r="22" cx="546" cy="208"></circle><circle r="27" cx="908" cy="391"></circle><circle r="8" cx="527" cy="424"></circle><circle r="51" cx="629" cy="338"></circle><circle r="30" cx="97" cy="251"></circle><circle r="34" cx="311" cy="496"></circle><circle r="30" cx="169" cy="429"></circle><circle r="47" cx="794" cy="485"></circle><circle r="37" cx="710" cy="95"></circle><circle r="33" cx="802" cy="7"></circle><circle r="30" cx="367" cy="196"></circle><circle r="25" cx="776" cy="362"></circle><circle r="40" cx="646" cy="537"></circle><circle r="3" cx="379" cy="43"></circle><circle r="32" cx="284" cy="332"></circle><circle r="23" cx="261" cy="224"></circle><circle r="6" cx="385" cy="419"></circle><circle r="28" cx="21" cy="174"></circle><circle r="26" cx="587" cy="7"></circle><circle r="29" cx="16" cy="20"></circle><circle r="11" cx="221" cy="16"></circle><circle r="26" cx="944" cy="531"></circle><circle r="21" cx="759" cy="243"></circle><circle r="40" cx="111" cy="70"></circle><circle r="45" cx="13" cy="325"></circle><circle r="40" cx="461" cy="306"></circle><circle r="35" cx="953" cy="19"></circle><circle r="28" cx="419" cy="534"></circle><circle r="49" cx="57" cy="538"></circle><circle r="33" cx="483" cy="67"></circle><circle r="38" cx="295" cy="111"></circle><circle r="34" cx="831" cy="148"></circle><circle r="31" cx="661" cy="197"></circle><circle r="51" cx="207" cy="539"></circle><circle r="34" cx="683" cy="431"></circle></g></svg>