<svg id="visual" viewBox="0 0 900 600" width="900" height="600" xmlns="http://www.w3.org/2000/svg" xmlns:xlink="http://www.w3.org/1999/xlink" version="1.1"><rect x="0" y="0" width="900" height="600" fill="#FFFFFF"></rect><defs><linearGradient id="grad1_0" x1="33.3%" y1="0%" x2="100%" y2="100%"><stop offset="20%" stop-color="#ffffff" stop-opacity="1"></stop><stop offset="80%" stop-color="#ffffff" stop-opacity="1"></stop></linearGradient></defs><defs><linearGradient id="grad2_0" x1="0%" y1="0%" x2="66.7%" y2="100%"><stop offset="20%" stop-color="#ffffff" stop-opacity="1"></stop><stop offset="80%" stop-color="#ffffff" stop-opacity="1"></stop></linearGradient></defs><g transform="translate(900, 0)"><path d="M0 351.5C-25.9 349 -51.9 346.4 -77.7 340.2C-103.5 334.1 -129.1 324.4 -148 307.2C-166.8 290.1 -178.9 265.5 -200.8 251.7C-222.7 238 -254.4 235 -274.8 219.2C-295.3 203.4 -304.4 174.9 -307.2 148C-310.1 121.1 -306.6 95.8 -313 71.4C-319.3 47 -335.4 23.5 -351.5 0L0 0Z" fill="#c100ff"></path></g><g transform="translate(0, 600)"><path d="M0 -351.5C19.7 -323 39.4 -294.5 67.2 -294.4C95 -294.3 131 -322.7 152.5 -316.7C174.1 -310.8 181.2 -270.6 196.4 -246.3C211.6 -222 234.8 -213.7 244.7 -195.2C254.6 -176.6 251.3 -147.9 264 -127.1C276.7 -106.4 305.4 -93.5 322.7 -73.7C340 -53.8 345.8 -26.9 351.5 0L0 0Z" fill="#c100ff"></path></g></svg>