<svg id="visual" viewBox="0 0 675 900" width="675" height="900" xmlns="http://www.w3.org/2000/svg" xmlns:xlink="http://www.w3.org/1999/xlink" version="1.1"><rect x="0" y="0" width="675" height="900" fill="#001220"></rect><defs><linearGradient id="grad1_0" x1="0%" y1="0%" x2="100%" y2="100%"><stop offset="30%" stop-color="#001220" stop-opacity="1"></stop><stop offset="70%" stop-color="#001220" stop-opacity="1"></stop></linearGradient></defs><defs><linearGradient id="grad2_0" x1="0%" y1="0%" x2="100%" y2="100%"><stop offset="30%" stop-color="#001220" stop-opacity="1"></stop><stop offset="70%" stop-color="#001220" stop-opacity="1"></stop></linearGradient></defs><g transform="translate(675, 0)"><path d="M0 450C-59.7 436.1 -119.4 422.3 -161.9 390.8C-204.4 359.3 -229.6 310.3 -274.4 274.4C-319.1 238.5 -383.2 215.7 -415.7 172.2C-448.3 128.7 -449.1 64.3 -450 0L0 0Z" fill="#827AB6"></path></g><g transform="translate(0, 900)"><path d="M0 -450C65.4 -450.3 130.7 -450.5 172.2 -415.7C213.7 -381 231.4 -311.2 265.9 -265.9C300.4 -220.6 351.8 -199.8 385.3 -159.6C418.8 -119.4 434.4 -59.7 450 0L0 0Z" fill="#827AB6"></path></g></svg>