<svg width="168" height="146" viewBox="0 0 168 146" fill="none" xmlns="http://www.w3.org/2000/svg">
<path d="M82.6603 106.284H33.5326L33.4059 106.263C31.3238 105.911 24.2332 104.251 20.3713 97.5125C18.0922 93.524 16.615 86.9821 19.9633 81.6641C20.716 80.4683 22.9951 76.8456 27.3846 76.3321C31.0354 75.91 33.8139 77.8937 34.848 78.766C35.4811 79.3076 35.5585 80.2573 35.0238 80.8903C34.4892 81.5234 33.5326 81.6008 32.8995 81.0662C32.1679 80.4472 30.2053 79.0403 27.7363 79.3287C24.7819 79.6734 23.1358 82.2831 22.5168 83.2679C20.0478 87.1931 20.9763 92.497 22.9951 96.0142C26.1817 101.585 32.3016 102.999 33.7928 103.274H82.6603C83.4904 103.274 84.1657 103.949 84.1657 104.779C84.1657 105.609 83.4904 106.284 82.6603 106.284Z" fill="white"/>
<path d="M55.7821 106.108C55.6485 106.108 55.5078 106.087 55.3671 106.052C52.4549 105.229 47.0384 103.119 43.5142 98.2509C39.2303 92.349 40.4543 86.2784 40.9115 83.9923C41.9456 78.8431 44.5483 75.8113 47.559 72.2942C48.8603 70.7747 50.3375 69.0584 51.8429 66.9832C55.958 61.3206 58.9546 54.8279 60.7413 47.681C60.9453 46.8721 61.7613 46.3797 62.5702 46.5837C63.3792 46.7877 63.8716 47.6037 63.6676 48.4126C61.7894 55.9323 58.631 62.7837 54.2838 68.7559C52.7081 70.9295 51.1887 72.6951 49.8451 74.2567C46.8837 77.7106 44.7453 80.2078 43.866 84.5831C43.4791 86.5176 42.445 91.6456 45.9552 96.4782C48.9518 100.607 53.6577 102.429 56.1901 103.147C56.992 103.372 57.4563 104.209 57.2312 105.011C57.0413 105.672 56.4363 106.108 55.7821 106.108Z" fill="white"/>
<path d="M61.022 49.5944C59.9598 49.5944 58.8343 49.4749 57.6737 49.2357C52.1165 48.0891 46.7845 44.4875 44.0904 40.0559C41.157 35.2444 40.8053 28.7588 43.0845 21.8088C46.067 12.7345 52.7426 5.11637 60.5015 1.93685C67.7257 -1.02461 76.3639 -0.25083 80.8307 1.98609C84.6855 3.9135 88.8358 7.75424 90.4396 9.31586C91.4385 10.2866 92.2193 11.1307 92.9157 11.8764C94.5195 13.6068 95.5817 14.7464 97.7483 15.8085C99.2606 16.5472 100.752 16.9481 104.417 17.6093C106.168 17.9259 107.378 18.0314 108.349 18.1158C109.868 18.2495 110.966 18.3409 112.049 19.2413C114.237 21.0421 114.546 24.6788 113.006 30.3626C112.788 31.1645 111.958 31.6428 111.156 31.4248C110.354 31.2067 109.875 30.3767 110.093 29.5747C111.704 23.6518 110.656 21.9988 110.129 21.5697C109.798 21.2953 109.467 21.2461 108.082 21.1265C107.104 21.0421 105.76 20.9225 103.875 20.5849C100.33 19.9447 98.4095 19.5016 96.4188 18.5238C93.7457 17.2154 92.4022 15.7663 90.6999 13.9304C90.0316 13.2129 89.2719 12.3899 88.3363 11.4824C86.831 10.0193 82.9551 6.42475 79.4801 4.68727C75.5549 2.72469 67.8101 2.20415 61.641 4.73651C54.7825 7.55024 48.6205 14.6268 45.9474 22.7655C43.9708 28.7799 44.2311 34.5128 46.6579 38.5083C48.9018 42.1943 53.5726 45.3316 58.2716 46.3024C61.1697 46.9003 63.6528 46.5978 65.2778 45.4512C69.013 42.8063 68.5558 35.1952 68.3377 31.5373C68.0704 27.0213 66.7972 22.6459 64.5532 18.5238C64.1593 17.7922 64.4266 16.8778 65.1582 16.4768C65.8898 16.0759 66.8042 16.3502 67.2052 17.0818C69.6602 21.5908 71.053 26.3952 71.3484 31.3544C71.6227 35.8775 72.1222 44.2976 67.0223 47.9132C65.4325 49.0387 63.3644 49.6155 61.015 49.6155L61.022 49.5944Z" fill="white"/>
<path d="M78.8132 51.9087C78.0113 51.9087 77.343 51.2756 77.3078 50.4666C77.1249 46.3867 77.35 42.2717 77.962 38.2269C78.1027 37.3124 78.4685 34.8786 80.5225 33.9289C83.0619 32.7542 85.5661 34.8786 86.3891 35.575L96.1176 43.8122C96.7507 44.3468 96.8351 45.3034 96.2935 45.9365C95.7589 46.5696 94.8022 46.647 94.1691 46.1124L84.4406 37.8752C82.9001 36.5738 82.1474 36.4965 81.7887 36.6653C81.3948 36.8482 81.1204 37.5024 80.9446 38.6771C80.3607 42.5249 80.1497 46.443 80.3256 50.333C80.3607 51.163 79.7206 51.8665 78.8835 51.9016C78.8624 51.9016 78.8413 51.9016 78.8132 51.9016V51.9087Z" fill="white"/>
<path d="M107.899 52.1478C107.526 52.1478 107.154 52.0141 106.865 51.7328C102.314 47.4137 95.1038 45.6551 88.9277 47.3504C88.1258 47.5755 87.2957 47.0971 87.0777 46.2952C86.8596 45.4933 87.3309 44.6633 88.1328 44.4452C95.3993 42.4474 103.566 44.4522 108.94 49.5521C109.545 50.1219 109.573 51.0786 108.997 51.6835C108.701 51.993 108.3 52.1548 107.906 52.1548L107.899 52.1478Z" fill="white"/>
<path d="M113.07 53.1821C113.02 53.1821 112.964 53.1821 112.915 53.1751C112.085 53.0907 111.487 52.345 111.571 51.522L112.352 43.9953C112.366 43.8616 112.394 43.6013 112.38 43.4677C112.24 43.3973 111.81 43.2989 111.114 43.3622C107.702 43.6717 104.347 44.959 101.653 46.9849C100.985 47.4843 100.042 47.3506 99.5426 46.6894C99.0431 46.0212 99.1768 45.0786 99.838 44.5791C102.968 42.2226 106.872 40.7313 110.833 40.3655C113.667 40.1053 114.709 41.3574 115.081 42.1312C115.482 42.9471 115.398 43.7702 115.335 44.3118L114.554 51.8385C114.476 52.6123 113.822 53.1891 113.056 53.1891L113.07 53.1821Z" fill="white"/>
<path d="M95.7792 41.8639C92.9092 41.8639 89.9829 41.259 87.2325 40.0139C86.4728 39.6692 86.1352 38.7758 86.4798 38.0232C86.8245 37.2635 87.7109 36.9258 88.4776 37.2705C94.7452 40.1053 102.033 39.0783 106.612 34.71C111.937 29.6312 110.833 22.4914 110.692 21.6965C110.544 20.8805 111.093 20.0927 111.909 19.9449C112.725 19.7972 113.513 20.3459 113.661 21.1619C113.836 22.1256 115.159 30.7215 108.694 36.8906C105.276 40.1546 100.612 41.8639 95.7863 41.8639H95.7792Z" fill="white"/>
<path d="M95.1319 80.5382C91.7765 80.5382 88.4212 79.7504 85.4667 78.1677C82.4982 76.5779 79.9307 74.2284 78.0596 71.3795C73.8601 65.0064 73.6069 56.6285 77.4124 50.0374C77.8274 49.3199 78.7489 49.0666 79.4735 49.4816C80.198 49.8967 80.4442 50.8182 80.0292 51.5427C76.8426 57.0717 77.0677 64.3804 80.5849 69.7194C82.1887 72.1533 84.3694 74.151 86.9017 75.5087C92.0157 78.2521 98.832 78.1536 103.854 75.2625C104.579 74.8474 105.493 75.0936 105.916 75.8182C106.331 76.5427 106.084 77.4642 105.36 77.8792C102.279 79.6519 98.7053 80.5453 95.1389 80.5453L95.1319 80.5382Z" fill="white"/>
<path d="M67.1848 106.108C66.397 106.108 65.7287 105.496 65.6795 104.694C65.6302 103.864 66.2563 103.147 67.0934 103.097C68.4018 103.013 75.1406 102.331 78.9884 96.8158C82.2594 92.1169 82.2524 85.4132 78.9533 81.2278C78.1795 80.243 77.2158 79.3848 76.0832 78.6743C75.3798 78.2311 75.1688 77.3026 75.6119 76.5992C76.0551 75.8957 76.9836 75.6847 77.6871 76.1279C79.108 77.0212 80.332 78.1116 81.3238 79.3707C85.467 84.6464 85.5304 92.7148 81.4575 98.5463C76.8219 105.201 68.8309 106.017 67.2763 106.115C67.2411 106.115 67.213 106.115 67.1848 106.115V106.108Z" fill="white"/>
<path d="M90.2785 106.58C89.357 106.58 88.534 106.58 87.8236 106.573C86.9935 106.573 86.3182 105.883 86.3252 105.053C86.3252 104.223 87.0076 103.555 87.8306 103.555H87.8447C89.1249 103.562 90.778 103.569 92.7124 103.555C93.7043 103.548 95.3011 103.534 95.8497 103.464C96.1241 102.655 94.879 99.5314 94.274 98.012C93.9997 97.3156 93.7254 96.6332 93.4862 95.972C91.5658 90.7385 90.8343 84.914 91.2985 78.6675C91.3618 77.8375 92.0864 77.2255 92.9164 77.2747C93.7465 77.3381 94.3655 78.0626 94.3092 78.8926C93.8731 84.71 94.5484 90.1054 96.321 94.938C96.5532 95.571 96.8134 96.2323 97.0807 96.9005C98.5368 100.551 99.9156 104.005 97.7912 105.827C96.9541 106.545 96.0608 106.552 92.7476 106.58C91.8683 106.58 91.0453 106.587 90.2926 106.587L90.2785 106.58Z" fill="white"/>
<path d="M113.661 74.7702C113.394 74.7702 113.119 74.6999 112.873 74.5451C112.163 74.109 111.945 73.1804 112.381 72.47C113.696 70.3386 115.778 65.9492 114.864 60.5398C114.442 58.0215 113.443 55.6509 111.888 53.4843C111.403 52.809 111.558 51.8664 112.233 51.3811C112.908 50.8957 113.851 51.0504 114.336 51.7257C116.158 54.2651 117.333 57.0648 117.832 60.0333C118.909 66.4134 116.482 71.5555 114.941 74.0527C114.653 74.517 114.16 74.7702 113.661 74.7702Z" fill="white"/>
<path d="M137.057 106.362C136.895 106.362 136.74 106.362 136.579 106.348C135.749 106.312 135.101 105.609 135.144 104.772C135.179 103.942 135.889 103.302 136.719 103.337C137.5 103.372 138.281 103.288 139.027 103.084C140.454 102.69 141.39 101.958 141.897 101.564C142.41 101.163 143.69 100.059 144.57 98.3426C146.11 95.353 146.42 90.8088 144.225 88.6844C143.339 87.8262 142.347 87.3831 141.313 87.4182C140.166 87.4464 139.294 88.0654 138.879 88.4312C138.253 88.9799 137.303 88.9166 136.754 88.2905C136.206 87.6644 136.269 86.7148 136.895 86.1661C137.62 85.533 139.139 84.4638 141.235 84.4075C143.064 84.3583 144.865 85.111 146.328 86.5249C149.684 89.7677 149.311 95.7469 147.264 99.7283C146.152 101.888 144.591 103.295 143.761 103.942C143.142 104.427 141.84 105.44 139.835 105.989C138.935 106.235 138.014 106.362 137.071 106.362H137.057Z" fill="white"/>
<path d="M121.898 105.932C118.437 105.932 115.011 104.392 112.957 101.712C110.017 97.8711 110.221 92.1663 113.422 88.7194C113.991 88.1075 114.941 88.0723 115.553 88.6421C116.165 89.2118 116.2 90.1615 115.63 90.7735C113.436 93.137 113.309 97.2169 115.349 99.8829C117.361 102.514 121.216 103.611 124.501 102.507C127.687 101.43 130.22 98.3635 130.789 94.8745C131.472 90.7242 129.594 86.0605 125.767 82.3885C122.186 78.9558 117.53 76.754 113.028 74.6226C112.275 74.2639 111.952 73.3705 112.31 72.6179C112.669 71.8652 113.562 71.5416 114.315 71.9003C118.817 74.0247 123.917 76.4375 127.849 80.2149C132.393 84.5692 134.602 90.2318 133.765 95.3598C133.019 99.9251 129.678 103.942 125.464 105.363C124.311 105.75 123.108 105.939 121.905 105.939L121.898 105.932Z" fill="white"/>
<path d="M105.79 20.0363C105.769 20.1559 105.769 20.2473 105.769 20.3317C105.818 22.7867 105.846 24.2991 106.521 25.7833C106.599 25.9451 106.887 26.5641 107.379 27.1409C108.47 28.4071 110.819 29.7929 112.149 27.767C113.422 25.8255 113.007 21.9004 111.748 20.1418C110.953 19.0233 109.975 19.0163 108.301 18.9952C107.773 18.9952 106.001 18.967 105.783 20.0363H105.79Z" fill="white"/>
<path d="M135.875 106.27H109.194C108.364 106.27 107.688 105.595 107.688 104.765C107.688 103.935 108.364 103.259 109.194 103.259H135.875C136.705 103.259 137.38 103.935 137.38 104.765C137.38 105.595 136.705 106.27 135.875 106.27Z" fill="white"/>
<path fill-rule="evenodd" clip-rule="evenodd" d="M87.0846 63.7333C88.3508 63.7333 89.3919 62.65 89.3919 61.3205C89.3919 59.991 88.3578 58.9077 87.0846 58.9077C85.8114 58.9077 84.7773 59.991 84.7773 61.3205C84.7773 62.65 85.8114 63.7333 87.0846 63.7333Z" fill="white"/>
<path fill-rule="evenodd" clip-rule="evenodd" d="M99.5289 64.9432C100.795 64.9432 101.836 63.8599 101.836 62.5305C101.836 61.201 100.802 60.1177 99.5289 60.1177C98.2557 60.1177 97.2217 61.201 97.2217 62.5305C97.2217 63.8599 98.2557 64.9432 99.5289 64.9432Z" fill="white"/>
<path fill-rule="evenodd" clip-rule="evenodd" d="M91.2007 69.0161C89.7305 69.0161 91.1866 70.6481 92.0518 71.4219C93.1703 72.4207 94.3521 71.7947 95.5971 70.2049C96.4061 69.1709 91.9885 69.0161 91.2007 69.0161Z" fill="white"/>
<path fill-rule="evenodd" clip-rule="evenodd" d="M81.7666 16.976C83.1945 16.976 84.3622 15.7591 84.3622 14.2678C84.3622 12.7765 83.1945 11.5596 81.7666 11.5596C80.3386 11.5596 79.1709 12.7765 79.1709 14.2678C79.1709 15.7591 80.3386 16.976 81.7666 16.976Z" fill="white"/>
<path d="M9.86917 139.774C9.98875 140.112 9.8973 140.323 9.59483 140.513C8.91953 140.879 8.03321 141.097 6.90068 141.097C3.77744 141.097 2.18064 139.444 2.18064 136.257V127.767H0.583849C0.218064 127.767 0 127.549 0 127.183V126.142C0 125.776 0.218064 125.558 0.583849 125.558H2.17361V122.097C2.17361 121.731 2.39167 121.513 2.75746 121.513H4.13619C4.50197 121.513 4.72004 121.724 4.72004 122.097V125.558H8.8914C9.25718 125.558 9.47524 125.776 9.47524 126.142V127.183C9.47524 127.549 9.25718 127.767 8.8914 127.767H4.72004V136.194C4.72004 137.974 5.57822 138.888 7.17502 138.888C7.75887 138.888 8.24424 138.768 8.7085 138.522C9.10946 138.304 9.3838 138.403 9.50338 138.768L9.86917 139.781V139.774Z" fill="white"/>
<path d="M23.2902 135.519C23.2902 139.17 21.3277 141.097 17.712 141.097C14.0964 141.097 12.1338 139.17 12.1338 135.519V126.142C12.1338 125.776 12.3519 125.558 12.7176 125.558H14.0964C14.4622 125.558 14.6802 125.776 14.6802 126.142V135.308C14.6802 137.791 15.6299 138.895 17.7472 138.895C19.8645 138.895 20.8142 137.791 20.8142 135.308V126.142C20.8142 125.776 21.0322 125.558 21.398 125.558H22.7134C23.0792 125.558 23.2973 125.776 23.2973 126.142V135.519H23.2902Z" fill="white"/>
<path d="M46.462 130.862V139.873C46.462 140.422 46.1525 140.731 45.6038 140.731H42.9659C42.4173 140.731 42.1077 140.422 42.1077 139.873V131.017C42.1077 129.518 41.5591 128.78 40.4195 128.78C39.2799 128.78 38.7313 129.518 38.7313 131.017V139.873C38.7313 140.422 38.4218 140.731 37.8731 140.731H35.2352C34.6865 140.731 34.377 140.422 34.377 139.873V131.017C34.377 129.518 33.8283 128.78 32.6606 128.78C31.5563 128.78 31.0076 129.518 31.0076 131.017V139.873C31.0076 140.422 30.6981 140.731 30.1494 140.731H27.5115C26.9628 140.731 26.6533 140.422 26.6533 139.873V130.862C26.6533 127.12 28.7073 125.038 32.3863 125.038C34.166 125.038 35.5729 125.586 36.5225 126.571H36.5858C37.5073 125.593 38.9142 125.038 40.6938 125.038C44.4009 125.038 46.455 127.12 46.455 130.862H46.462Z" fill="white"/>
<path d="M61.227 130.918V133.465C61.227 134.014 60.9175 134.323 60.3688 134.323H53.44V134.661C53.44 136.588 54.2067 137.355 55.9231 137.355C56.7813 137.355 57.548 137.109 58.2796 136.588C58.772 136.251 59.1659 136.279 59.4754 136.771L60.5517 138.396C60.826 138.853 60.7979 139.254 60.3688 139.592C59.1448 140.541 57.4847 141.09 55.8035 141.09C51.393 141.09 49.0928 139.064 49.0928 134.872V130.918C49.0928 127.148 51.2664 125.031 55.1634 125.031C59.0604 125.031 61.234 127.148 61.234 130.918H61.227ZM57.1189 131.165C57.1189 129.568 56.507 128.773 55.283 128.773C54.059 128.773 53.447 129.568 53.447 131.165V131.411H57.126V131.165H57.1189Z" fill="white"/>
<path d="M63.7094 140.422V126.262C63.7094 125.713 64.0189 125.403 64.5676 125.403H67.2055C67.7541 125.403 68.0636 125.713 68.0636 126.262V140.422C68.0636 143.854 66.3754 145.634 63.1326 145.634H62.3025C61.7538 145.634 61.4443 145.325 61.4443 144.776V142.75C61.4443 142.201 61.7538 141.892 62.3025 141.892C63.3436 141.892 63.7094 141.526 63.7094 140.422ZM63.4351 120.93C63.4351 119.488 64.448 118.475 65.89 118.475C67.3321 118.475 68.345 119.488 68.345 120.93C68.345 122.372 67.3321 123.385 65.89 123.385C64.448 123.385 63.4351 122.372 63.4351 120.93Z" fill="white"/>
<path d="M83.2017 130.918V135.209C83.2017 138.98 80.9929 141.097 77.0115 141.097C73.0301 141.097 70.8213 138.98 70.8213 135.209V130.918C70.8213 127.148 73.0301 125.031 77.0115 125.031C80.9929 125.031 83.2017 127.148 83.2017 130.918ZM78.8475 131.165C78.8475 129.568 78.2355 128.773 77.0115 128.773C75.7875 128.773 75.1755 129.568 75.1755 131.165V134.963C75.1755 136.56 75.7875 137.355 77.0115 137.355C78.2355 137.355 78.8475 136.56 78.8475 134.963V131.165Z" fill="white"/>
<path d="M85.84 131.073C85.84 127.12 87.7675 125.038 91.4464 125.038C92.7618 125.038 93.9014 125.312 94.9073 125.832C95.3997 126.079 95.4911 126.508 95.2449 127L94.3868 128.745C94.1406 129.265 93.7466 129.329 93.2191 129.082C92.79 128.871 92.3609 128.773 91.9318 128.773C90.7993 128.773 90.1873 129.511 90.1873 130.827V139.866C90.1873 140.415 89.8777 140.724 89.3291 140.724H86.6912C86.1425 140.724 85.833 140.415 85.833 139.866V131.073H85.84Z" fill="white"/>
<path d="M108.146 131.136V135.308C108.146 139.078 106.12 141.097 102.322 141.097C98.7975 141.097 96.835 139.381 96.835 136.377C96.835 133.373 98.7624 131.748 102.294 131.748H105.6V131.383C105.6 128.59 104.467 127.401 102.104 127.401C100.971 127.401 99.8949 127.858 99.0719 128.569C98.7624 128.843 98.488 128.843 98.2418 128.506L97.6017 127.619C97.3907 127.31 97.4188 127.035 97.6932 126.789C99.0086 125.713 100.542 125.192 102.322 125.192C106.092 125.192 108.146 127.218 108.146 131.136ZM105.6 135.062V133.866H102.596C100.57 133.866 99.3814 134.724 99.3814 136.412C99.3814 138.1 100.451 138.895 102.322 138.895C104.559 138.895 105.6 137.671 105.6 135.062Z" fill="white"/>
<path d="M130.852 130.827V140.148C130.852 140.513 130.641 140.731 130.269 140.731H128.89C128.524 140.731 128.306 140.52 128.306 140.148V131.073C128.306 128.562 127.384 127.394 125.366 127.394C123.347 127.394 122.453 128.562 122.453 131.073V140.148C122.453 140.513 122.242 140.731 121.87 140.731H120.491C120.125 140.731 119.907 140.52 119.907 140.148V131.073C119.907 128.562 118.957 127.394 116.967 127.394C114.976 127.394 114.083 128.562 114.083 131.073V140.148C114.083 140.513 113.872 140.731 113.499 140.731H112.12C111.754 140.731 111.536 140.52 111.536 140.148V130.827C111.536 127.176 113.407 125.186 116.805 125.186C118.859 125.186 120.301 125.889 121.124 127.24H121.187C122.017 125.889 123.452 125.186 125.506 125.186C128.967 125.186 130.838 127.176 130.838 130.827H130.852Z" fill="white"/>
<path d="M134.469 121.141C134.469 120.191 135.144 119.516 136.066 119.516C136.987 119.516 137.69 120.191 137.69 121.141C137.69 122.09 137.015 122.737 136.066 122.737C135.116 122.737 134.469 122.062 134.469 121.141ZM135.39 140.724C135.024 140.724 134.806 140.513 134.806 140.14V126.135C134.806 125.769 135.024 125.551 135.39 125.551H136.769C137.135 125.551 137.353 125.769 137.353 126.135V140.14C137.353 140.506 137.142 140.724 136.769 140.724H135.39Z" fill="white"/>
<path d="M152.462 130.982V140.577C152.462 143.946 150.288 146 146.701 146C144.675 146 142.993 145.416 141.734 144.312C141.46 144.066 141.425 143.791 141.643 143.482L142.227 142.652C142.438 142.314 142.719 142.286 143.022 142.56C144.035 143.39 145.167 143.784 146.546 143.784C148.755 143.784 149.915 142.56 149.915 140.38V139.064H149.852C149.085 140.077 147.861 140.598 146.264 140.598C142.768 140.598 140.904 138.572 140.904 134.809V130.975C140.904 127.204 142.93 125.186 146.665 125.186C150.401 125.186 152.455 127.211 152.455 130.975L152.462 130.982ZM149.915 134.534V131.228C149.915 128.625 148.902 127.394 146.665 127.394C144.428 127.394 143.444 128.618 143.444 131.228V134.534C143.444 137.172 144.457 138.396 146.665 138.396C148.874 138.396 149.915 137.109 149.915 134.534Z" fill="white"/>
<path d="M167.418 130.982V135.336C167.418 139.078 165.392 141.097 161.628 141.097C157.865 141.097 155.867 139.071 155.867 135.336V130.982C155.867 127.211 157.893 125.192 161.628 125.192C165.364 125.192 167.418 127.218 167.418 130.982ZM164.871 131.256C164.871 128.618 163.858 127.394 161.621 127.394C159.384 127.394 158.4 128.618 158.4 131.256V135.055C158.4 137.657 159.412 138.888 161.621 138.888C163.83 138.888 164.871 137.664 164.871 135.055V131.256Z" fill="white"/>
</svg>
